<svg id="Logo-long" xmlns="http://www.w3.org/2000/svg" width="223.68" height="35.536" viewBox="0 0 223.68 35.536">
  <circle id="Ellipse_5" data-name="Ellipse 5" cx="17.5" cy="17.5" r="17.5" fill="#f44336"/>
  <g id="Logo" transform="translate(4 5)">
    <path id="Intersection_4" data-name="Intersection 4" d="M16.4,23.747a1.894,1.894,0,0,0-.907-.621L1.4,18.9A18.728,18.728,0,0,1,0,13.78L15.231,8.652a1.928,1.928,0,0,0,.9-.664L22.3,0A18.231,18.231,0,0,1,26,11.254C26,17.824,22.824,23.477,18.264,26Z" fill="#fff"/>
    <path id="Intersection_3" data-name="Intersection 3" d="M11.973,17.417a1.382,1.382,0,0,0-.662-.455l-10.29-3.1A13.785,13.785,0,0,1,0,10.107L11.121,6.346a1.408,1.408,0,0,0,.658-.487L16.283,0a13.411,13.411,0,0,1,2.7,8.254c0,4.818-2.319,8.965-5.648,10.815Z" transform="translate(4.548 4.513)" fill="#fff"/>
  </g>
  <path id="Path_3" data-name="Path 3" d="M.64-22.848l5.248,11.3L.192,0H5.248L8.512-7.744,11.808,0h5.184L11.3-11.552l5.312-11.3H11.584L8.672-15.456,5.728-22.848Zm18.016,5.632V5.536h4.416V-1.6h.064A4.518,4.518,0,0,0,24.72-.112a4.511,4.511,0,0,0,2.128.464,4.359,4.359,0,0,0,4-2.08q1.28-2.08,1.28-6.88t-1.28-6.928a4.334,4.334,0,0,0-4-2.128,4.441,4.441,0,0,0-2.256.528,4.84,4.84,0,0,0-1.648,1.744H22.88v-1.824Zm4.416,8.608a15.59,15.59,0,0,1,.432-4.24,1.823,1.823,0,0,1,1.9-1.424,1.8,1.8,0,0,1,1.872,1.424,15.59,15.59,0,0,1,.432,4.24,15.59,15.59,0,0,1-.432,4.24,1.8,1.8,0,0,1-1.872,1.424,1.823,1.823,0,0,1-1.9-1.424A15.59,15.59,0,0,1,23.072-8.608ZM42.944-10.56H38.432v-.672a6.7,6.7,0,0,1,.112-1.216,3.955,3.955,0,0,1,.368-1.1,2.184,2.184,0,0,1,.688-.8,1.874,1.874,0,0,1,1.1-.3,2.04,2.04,0,0,1,1.1.272,1.788,1.788,0,0,1,.672.8,4.468,4.468,0,0,1,.336,1.28Q42.912-11.552,42.944-10.56ZM38.432-7.936h8.736v-.992a23.121,23.121,0,0,0-.256-3.6,7.362,7.362,0,0,0-.96-2.752,4.755,4.755,0,0,0-1.936-1.76,6.966,6.966,0,0,0-3.152-.624,7.468,7.468,0,0,0-3.584.736,5.212,5.212,0,0,0-2.064,1.984,8.025,8.025,0,0,0-.96,2.848,22.418,22.418,0,0,0-.24,3.328q0,1.632.144,3.264a8.326,8.326,0,0,0,.784,2.944A4.967,4.967,0,0,0,36.928-.448a7.342,7.342,0,0,0,3.744.8,6.1,6.1,0,0,0,4.64-1.568,6.9,6.9,0,0,0,1.6-4.576H42.944a5.9,5.9,0,0,1-.7,2.432,1.794,1.794,0,0,1-1.632.8A1.577,1.577,0,0,1,39.584-2.9a2.42,2.42,0,0,1-.672-.9,4.871,4.871,0,0,1-.368-1.28,9.67,9.67,0,0,1-.112-1.488Zm11.04-9.28V0h4.416V-11.424q0-2.848,2.336-2.848a1.79,1.79,0,0,1,1.44.528,2.949,2.949,0,0,1,.448,1.872V0h4.416V-12.768a5.189,5.189,0,0,0-1.136-3.744,4.359,4.359,0,0,0-3.248-1.152,5.4,5.4,0,0,0-2.56.592A4.481,4.481,0,0,0,53.76-15.2H53.7v-2.016ZM68.7-5.632H64.736v.608a8.206,8.206,0,0,0,.288,2.256,3.814,3.814,0,0,0,1.008,1.712A4.5,4.5,0,0,0,67.984,0a11.442,11.442,0,0,0,3.088.352A10.759,10.759,0,0,0,73.648.064,5.2,5.2,0,0,0,75.664-.9a4.675,4.675,0,0,0,1.328-1.68,5.5,5.5,0,0,0,.48-2.384,4.984,4.984,0,0,0-.864-3.088,6.012,6.012,0,0,0-2.944-1.84l-2.656-.9a3.078,3.078,0,0,1-1.52-.864,1.823,1.823,0,0,1-.4-1.152,1.623,1.623,0,0,1,.624-1.392,2.373,2.373,0,0,1,1.456-.464,1.719,1.719,0,0,1,1.52.624,3.516,3.516,0,0,1,.432,1.968h3.968v-.7a4.585,4.585,0,0,0-1.44-3.616,6.553,6.553,0,0,0-4.448-1.28,8.887,8.887,0,0,0-2.9.416,5.569,5.569,0,0,0-1.968,1.12,4.2,4.2,0,0,0-1.12,1.648,5.677,5.677,0,0,0-.352,2,4.662,4.662,0,0,0,.928,2.992A5.9,5.9,0,0,0,68.544-7.68l3.1,1.12a3.724,3.724,0,0,1,1.12.688,1.613,1.613,0,0,1,.48,1.264,1.9,1.9,0,0,1-.608,1.536,2.451,2.451,0,0,1-1.632.512A2.135,2.135,0,0,1,69.3-3.248,2.675,2.675,0,0,1,68.7-5.056ZM87.968-10.56H83.456v-.672a6.7,6.7,0,0,1,.112-1.216,3.955,3.955,0,0,1,.368-1.1,2.184,2.184,0,0,1,.688-.8,1.874,1.874,0,0,1,1.1-.3,2.04,2.04,0,0,1,1.1.272,1.788,1.788,0,0,1,.672.8,4.468,4.468,0,0,1,.336,1.28Q87.936-11.552,87.968-10.56ZM83.456-7.936h8.736v-.992a23.12,23.12,0,0,0-.256-3.6,7.362,7.362,0,0,0-.96-2.752,4.755,4.755,0,0,0-1.936-1.76,6.966,6.966,0,0,0-3.152-.624,7.468,7.468,0,0,0-3.584.736,5.212,5.212,0,0,0-2.064,1.984,8.025,8.025,0,0,0-.96,2.848,22.419,22.419,0,0,0-.24,3.328q0,1.632.144,3.264a8.326,8.326,0,0,0,.784,2.944A4.967,4.967,0,0,0,81.952-.448a7.342,7.342,0,0,0,3.744.8,6.1,6.1,0,0,0,4.64-1.568,6.9,6.9,0,0,0,1.6-4.576H87.968a5.9,5.9,0,0,1-.7,2.432,1.794,1.794,0,0,1-1.632.8A1.577,1.577,0,0,1,84.608-2.9a2.42,2.42,0,0,1-.672-.9,4.871,4.871,0,0,1-.368-1.28,9.67,9.67,0,0,1-.112-1.488Z" transform="translate(38 30)" fill="#a7bbc4"/>
  <path id="Path_4" data-name="Path 4" d="M2.432-22.144v4.928H.192v3.008h2.24v9.856a12.272,12.272,0,0,0,.16,2.176A3.031,3.031,0,0,0,3.184-.784a2.129,2.129,0,0,0,1.248.7A10.237,10.237,0,0,0,6.528.1Q7.3.1,7.984.048T9.408,0V-3.072q-.224.032-.48.048t-.512.016A1.473,1.473,0,0,1,7.152-3.44a2.618,2.618,0,0,1-.3-1.456v-9.312h2.56v-3.008H6.848v-4.928Zm8.512,4.928V0H15.36V-10.336a3.311,3.311,0,0,1,.288-1.456,2.642,2.642,0,0,1,.768-.96,3.072,3.072,0,0,1,1.056-.528,4.287,4.287,0,0,1,1.152-.16q.352,0,.688.016t.688.048V-17.6q-.192-.032-.4-.048t-.4-.016a3.672,3.672,0,0,0-2.336.752,6.265,6.265,0,0,0-1.632,2h-.064v-2.3ZM29.632-8.608v3.392A2.69,2.69,0,0,1,29.376-4a2.447,2.447,0,0,1-.656.832,2.588,2.588,0,0,1-.88.464,3.224,3.224,0,0,1-.928.144,1.342,1.342,0,0,1-1.28-.7,3.5,3.5,0,0,1-.384-1.7,2.71,2.71,0,0,1,.576-1.824,3.394,3.394,0,0,1,1.92-.96,6.212,6.212,0,0,0,.928-.3A3.962,3.962,0,0,0,29.632-8.608Zm-8.064-3.328h3.968v-.48a2.451,2.451,0,0,1,.512-1.632,1.9,1.9,0,0,1,1.536-.608,1.955,1.955,0,0,1,1.584.56,2.363,2.363,0,0,1,.464,1.552,1.965,1.965,0,0,1-.384,1.312,2.668,2.668,0,0,1-1.376.7l-2.5.672a10.611,10.611,0,0,0-1.968.736,4.277,4.277,0,0,0-1.344,1.04,4.042,4.042,0,0,0-.784,1.5,7.56,7.56,0,0,0-.256,2.1,7.049,7.049,0,0,0,.224,1.744,4.956,4.956,0,0,0,.7,1.584,3.307,3.307,0,0,0,1.28,1.1,4.331,4.331,0,0,0,1.952.4,7.166,7.166,0,0,0,2.608-.4,3.752,3.752,0,0,0,1.776-1.744h.064q.1.448.208.912a3.659,3.659,0,0,0,.336.88H34.4a6.589,6.589,0,0,1-.432-1.44,12.188,12.188,0,0,1-.112-1.888v-9.056a8.9,8.9,0,0,0-.24-2.128,3.65,3.65,0,0,0-.912-1.68,4.373,4.373,0,0,0-1.888-1.088,10.911,10.911,0,0,0-3.2-.384,9.806,9.806,0,0,0-2.352.272,5.144,5.144,0,0,0-1.92.9,4.387,4.387,0,0,0-1.3,1.632,5.829,5.829,0,0,0-.48,2.512Zm23.712.928H49.5a7.177,7.177,0,0,0-1.552-4.864,5.786,5.786,0,0,0-4.624-1.792,9.07,9.07,0,0,0-2.816.416A4.983,4.983,0,0,0,38.3-15.792a7.142,7.142,0,0,0-1.44,2.784,15.912,15.912,0,0,0-.512,4.4,19.062,19.062,0,0,0,.416,4.336A7.16,7.16,0,0,0,38-1.488a4.2,4.2,0,0,0,2.048,1.44,9.4,9.4,0,0,0,2.9.4q3.52,0,5.04-1.776A7.742,7.742,0,0,0,49.5-6.592H45.28a6.876,6.876,0,0,1-.512,3.072,1.72,1.72,0,0,1-1.632.96,2,2,0,0,1-1.2-.336,2.143,2.143,0,0,1-.72-1.072,7.806,7.806,0,0,1-.352-1.872q-.1-1.136-.1-2.736,0-1.5.1-2.608a7.47,7.47,0,0,1,.352-1.824,2.2,2.2,0,0,1,.768-1.088,2.194,2.194,0,0,1,1.312-.368,1.6,1.6,0,0,1,1.024.3,1.968,1.968,0,0,1,.592.8,4.293,4.293,0,0,1,.288,1.1A9.559,9.559,0,0,1,45.28-11.008Zm11.1-11.84H51.968V0h4.416V-5.024l1.568-2.048L61.632,0H66.5L60.8-10.432l4.96-6.784H60.9l-4.448,6.432h-.064ZM76.1-10.56H71.584v-.672a6.7,6.7,0,0,1,.112-1.216,3.955,3.955,0,0,1,.368-1.1,2.184,2.184,0,0,1,.688-.8,1.874,1.874,0,0,1,1.1-.3,2.04,2.04,0,0,1,1.1.272,1.788,1.788,0,0,1,.672.8,4.468,4.468,0,0,1,.336,1.28Q76.064-11.552,76.1-10.56ZM71.584-7.936H80.32v-.992a23.12,23.12,0,0,0-.256-3.6,7.362,7.362,0,0,0-.96-2.752,4.755,4.755,0,0,0-1.936-1.76,6.966,6.966,0,0,0-3.152-.624,7.468,7.468,0,0,0-3.584.736,5.212,5.212,0,0,0-2.064,1.984,8.025,8.025,0,0,0-.96,2.848,22.419,22.419,0,0,0-.24,3.328q0,1.632.144,3.264A8.326,8.326,0,0,0,68.1-2.56,4.967,4.967,0,0,0,70.08-.448a7.342,7.342,0,0,0,3.744.8,6.1,6.1,0,0,0,4.64-1.568,6.9,6.9,0,0,0,1.6-4.576H76.1a5.9,5.9,0,0,1-.7,2.432,1.794,1.794,0,0,1-1.632.8A1.577,1.577,0,0,1,72.736-2.9a2.42,2.42,0,0,1-.672-.9,4.871,4.871,0,0,1-.368-1.28,9.67,9.67,0,0,1-.112-1.488Zm11.04-9.28V0H87.04V-10.336a3.311,3.311,0,0,1,.288-1.456,2.642,2.642,0,0,1,.768-.96,3.072,3.072,0,0,1,1.056-.528,4.287,4.287,0,0,1,1.152-.16q.352,0,.688.016t.688.048V-17.6q-.192-.032-.4-.048t-.4-.016a3.672,3.672,0,0,0-2.336.752,6.265,6.265,0,0,0-1.632,2h-.064v-2.3Z" transform="translate(132 30)" fill="#f44336"/>
</svg>
