<svg id="Logo-long" xmlns="http://www.w3.org/2000/svg" width="134.023" height="35.378" viewBox="0 0 134.023 35.378">
  <circle id="Ellipse_5" data-name="Ellipse 5" cx="17.5" cy="17.5" r="17.5" fill="#00bcd4"/>
  <g id="Logo" transform="translate(4 5)">
    <path id="Intersection_4" data-name="Intersection 4" d="M16.4,23.747a1.894,1.894,0,0,0-.907-.621L1.4,18.9A18.728,18.728,0,0,1,0,13.78L15.231,8.652a1.928,1.928,0,0,0,.9-.664L22.3,0A18.231,18.231,0,0,1,26,11.254C26,17.824,22.824,23.477,18.264,26Z" fill="#fff"/>
    <path id="Intersection_3" data-name="Intersection 3" d="M11.973,17.417a1.382,1.382,0,0,0-.662-.455l-10.29-3.1A13.785,13.785,0,0,1,0,10.107L11.121,6.346a1.408,1.408,0,0,0,.658-.487L16.283,0a13.411,13.411,0,0,1,2.7,8.254c0,4.818-2.319,8.965-5.648,10.815Z" transform="translate(4.548 4.513)" fill="#fff"/>
  </g>
  <path id="Path_3" data-name="Path 3" d="M1.472-17.216V5.536H5.888V-1.6h.064A4.518,4.518,0,0,0,7.536-.112,4.511,4.511,0,0,0,9.664.352a4.359,4.359,0,0,0,4-2.08q1.28-2.08,1.28-6.88t-1.28-6.928a4.334,4.334,0,0,0-4-2.128,4.441,4.441,0,0,0-2.256.528A4.84,4.84,0,0,0,5.76-15.392H5.7v-1.824ZM5.888-8.608a15.59,15.59,0,0,1,.432-4.24,1.823,1.823,0,0,1,1.9-1.424A1.8,1.8,0,0,1,10.1-12.848a15.59,15.59,0,0,1,.432,4.24,15.59,15.59,0,0,1-.432,4.24A1.8,1.8,0,0,1,8.224-2.944a1.823,1.823,0,0,1-1.9-1.424A15.59,15.59,0,0,1,5.888-8.608Zm19.616,0v3.392A2.69,2.69,0,0,1,25.248-4a2.447,2.447,0,0,1-.656.832,2.588,2.588,0,0,1-.88.464,3.224,3.224,0,0,1-.928.144,1.342,1.342,0,0,1-1.28-.7,3.5,3.5,0,0,1-.384-1.7A2.71,2.71,0,0,1,21.7-6.784a3.394,3.394,0,0,1,1.92-.96,6.212,6.212,0,0,0,.928-.3A3.962,3.962,0,0,0,25.5-8.608ZM17.44-11.936h3.968v-.48a2.451,2.451,0,0,1,.512-1.632,1.9,1.9,0,0,1,1.536-.608,1.955,1.955,0,0,1,1.584.56,2.363,2.363,0,0,1,.464,1.552,1.965,1.965,0,0,1-.384,1.312,2.668,2.668,0,0,1-1.376.7l-2.5.672a10.611,10.611,0,0,0-1.968.736,4.277,4.277,0,0,0-1.344,1.04,4.042,4.042,0,0,0-.784,1.5,7.56,7.56,0,0,0-.256,2.1,7.049,7.049,0,0,0,.224,1.744,4.956,4.956,0,0,0,.7,1.584,3.307,3.307,0,0,0,1.28,1.1,4.331,4.331,0,0,0,1.952.4,7.166,7.166,0,0,0,2.608-.4A3.752,3.752,0,0,0,25.44-1.792H25.5q.1.448.208.912a3.659,3.659,0,0,0,.336.88h4.224a6.589,6.589,0,0,1-.432-1.44,12.188,12.188,0,0,1-.112-1.888v-9.056a8.9,8.9,0,0,0-.24-2.128,3.65,3.65,0,0,0-.912-1.68,4.373,4.373,0,0,0-1.888-1.088,10.911,10.911,0,0,0-3.2-.384,9.806,9.806,0,0,0-2.352.272,5.144,5.144,0,0,0-1.92.9,4.387,4.387,0,0,0-1.3,1.632,5.829,5.829,0,0,0-.48,2.512Zm23.712.928h4.224a7.177,7.177,0,0,0-1.552-4.864A5.786,5.786,0,0,0,39.2-17.664a9.07,9.07,0,0,0-2.816.416,4.983,4.983,0,0,0-2.208,1.456,7.142,7.142,0,0,0-1.44,2.784,15.912,15.912,0,0,0-.512,4.4,19.062,19.062,0,0,0,.416,4.336,7.16,7.16,0,0,0,1.232,2.784A4.2,4.2,0,0,0,35.92-.048a9.4,9.4,0,0,0,2.9.4q3.52,0,5.04-1.776a7.742,7.742,0,0,0,1.52-5.168H41.152A6.876,6.876,0,0,1,40.64-3.52a1.72,1.72,0,0,1-1.632.96,2,2,0,0,1-1.2-.336,2.143,2.143,0,0,1-.72-1.072,7.806,7.806,0,0,1-.352-1.872q-.1-1.136-.1-2.736,0-1.5.1-2.608a7.47,7.47,0,0,1,.352-1.824,2.2,2.2,0,0,1,.768-1.088,2.194,2.194,0,0,1,1.312-.368,1.6,1.6,0,0,1,1.024.3,1.968,1.968,0,0,1,.592.8,4.293,4.293,0,0,1,.288,1.1A9.559,9.559,0,0,1,41.152-11.008Zm11.1-11.84H47.84V0h4.416V-5.024l1.568-2.048L57.5,0h4.864l-5.7-10.432,4.96-6.784H56.768L52.32-10.784h-.064Z" transform="translate(44 26)" fill="#a7bbc4"/>
  <path id="Path_4" data-name="Path 4" d="M3.229,6.3q0-1.008.047-1.708a4.29,4.29,0,0,1,.2-1.12,1.219,1.219,0,0,1,.411-.607,1.163,1.163,0,0,1,.691-.187,1.056,1.056,0,0,1,1.055.765,8.135,8.135,0,0,1,.289,2.595A9.61,9.61,0,0,1,5.852,7.2a3.378,3.378,0,0,1-.224.905,1.461,1.461,0,0,1-.429.588,1.062,1.062,0,0,1-.681.215.987.987,0,0,1-.663-.215,1.4,1.4,0,0,1-.392-.579,3.2,3.2,0,0,1-.187-.831Q3.229,6.819,3.229,6.3ZM8.381.958H5.917v1.12H5.88A2.235,2.235,0,0,0,4.928,1,2.437,2.437,0,0,0,3.808.7a2.729,2.729,0,0,0-1.671.467,2.979,2.979,0,0,0-.952,1.2A5.6,5.6,0,0,0,.756,4.019a16.06,16.06,0,0,0-.1,1.792,7.364,7.364,0,0,0,.775,3.91,2.586,2.586,0,0,0,2.305,1.167,2.3,2.3,0,0,0,1.185-.336,3.067,3.067,0,0,0,.961-.9h.037v1.325A2.3,2.3,0,0,1,5.6,12.232a1.2,1.2,0,0,1-1.1.5,1.382,1.382,0,0,1-.457-.075,1.631,1.631,0,0,1-.4-.205.891.891,0,0,1-.392-.765H.784a2.386,2.386,0,0,0,.887,1.988,4,4,0,0,0,2.529.7,4.418,4.418,0,0,0,3.22-.971A3.978,3.978,0,0,0,8.381,10.5Zm1.811,0V11h2.576V4.971a1.931,1.931,0,0,1,.168-.849,1.541,1.541,0,0,1,.448-.56A1.792,1.792,0,0,1,14,3.254a2.5,2.5,0,0,1,.672-.093q.205,0,.4.009t.4.028V.734Q15.362.715,15.24.706T15.007.7a2.142,2.142,0,0,0-1.363.439A3.655,3.655,0,0,0,12.693,2.3h-.037V.958Zm6.216-3.285V11h2.576V4.336q0-1.661,1.363-1.661a1.044,1.044,0,0,1,.84.308,1.72,1.72,0,0,1,.261,1.092V11h2.576V3.552a3.027,3.027,0,0,0-.663-2.184A2.543,2.543,0,0,0,21.465.7,2.606,2.606,0,0,0,19.02,1.985h-.037V-2.327Z" transform="translate(110 21)" fill="#00bcd4"/>
</svg>
