<?xml version="1.0" encoding="UTF-8" standalone="no"?>
<!-- Generator: Adobe Illustrator 19.0.0, SVG Export Plug-In . SVG Version: 6.00 Build 0)  -->

<svg
   xmlns:dc="http://purl.org/dc/elements/1.1/"
   xmlns:cc="http://creativecommons.org/ns#"
   xmlns:rdf="http://www.w3.org/1999/02/22-rdf-syntax-ns#"
   xmlns:svg="http://www.w3.org/2000/svg"
   xmlns="http://www.w3.org/2000/svg"
   xmlns:sodipodi="http://sodipodi.sourceforge.net/DTD/sodipodi-0.dtd"
   xmlns:inkscape="http://www.inkscape.org/namespaces/inkscape"
   version="1.1"
   id="Capa_1"
   x="0px"
   y="0px"
   viewBox="0 0 341.39999 352.49111"
   xml:space="preserve"
   sodipodi:docname="user-female.svg"
   inkscape:version="0.92.2 5c3e80d, 2017-08-06"
   width="341.39999"
   height="352.49112"><metadata
     id="metadata49"><rdf:RDF><cc:Work
         rdf:about=""><dc:format>image/svg+xml</dc:format><dc:type
           rdf:resource="http://purl.org/dc/dcmitype/StillImage" /><dc:title></dc:title></cc:Work></rdf:RDF></metadata><defs
     id="defs47" /><sodipodi:namedview
     pagecolor="#ffffff"
     bordercolor="#666666"
     borderopacity="1"
     objecttolerance="10"
     gridtolerance="10"
     guidetolerance="10"
     inkscape:pageopacity="0"
     inkscape:pageshadow="2"
     inkscape:window-width="1280"
     inkscape:window-height="755"
     id="namedview45"
     showgrid="false"
     inkscape:zoom="0.68268628"
     inkscape:cx="-22.027691"
     inkscape:cy="119.17006"
     inkscape:window-x="1485"
     inkscape:window-y="5"
     inkscape:window-maximized="0"
     inkscape:current-layer="g8"
     units="mm"
     fit-margin-top="0"
     fit-margin-left="0"
     fit-margin-right="0"
     fit-margin-bottom="0" /><g
     id="g12"
     transform="translate(2.0713432,-15.805149)"><g
       id="g10"><g
         id="g8"
         transform="translate(-2.0715424,-60.074729)"
         style="fill:#9aadb3;fill-opacity:1"><path
           d="m 214.584,283.46692 v 0 -13.83112 c 0,0 48.7,1.34719 71.8,-19.84855 0,0 -33.6,-8.53218 -27.6,-63.5872 6,-55.05502 -7.5,-103.284294 -56.8,-99.242735 0,0 -21.3,-23.081795 -63.8,-8.532181 -14.5,4.939683 -53.599998,17.603234 -51.599998,93.764176 2,76.16094 -30.2,76.61001 -30.2,76.61001 0,0 16.6,21.64479 72.799998,21.19573 v 14.19037 l 42.8,112.26554 42.7,-111.90629 z"
           id="path4"
           inkscape:connector-curvature="0"
           style="fill:#dfdfdf;fill-opacity:1;stroke-width:0.94769418" /><path
           d="m 341.24341,421.671 -9.31991,-47.5 c -3.0344,-15.4 -13.76314,-28.6 -29.04347,-35.5 l -58.30369,-26.5 c -3.3595,-1.5 -6.61064,-3.2 -9.86177,-4.9 l 18.42309,50.1 -25.68396,-1.8 -56.78649,64.4 -56.78648,-64.5 -25.683965,1.8 18.748215,-50.1 -11.70409,5.5 -56.786486,26 c -15.171961,6.9 -26.009077,20.1 -29.0434695,35.5 l -9.31991941,47.5 c -0.65022693,3.5 2.27579431,6.7 6.06878471,6.7 h 162.3399902 4.33485 162.33999 c 3.79299,0 6.71901,-3.2 6.06878,-6.7 z"
           id="path6"
           inkscape:connector-curvature="0"
           style="fill:#dfdfdf;fill-opacity:1;stroke-width:1.04101467" /></g></g></g><g
     id="g14"
     transform="translate(2.0713432,-15.805149)" /><g
     id="g16"
     transform="translate(2.0713432,-15.805149)" /><g
     id="g18"
     transform="translate(2.0713432,-15.805149)" /><g
     id="g20"
     transform="translate(2.0713432,-15.805149)" /><g
     id="g22"
     transform="translate(2.0713432,-15.805149)" /><g
     id="g24"
     transform="translate(2.0713432,-15.805149)" /><g
     id="g26"
     transform="translate(2.0713432,-15.805149)" /><g
     id="g28"
     transform="translate(2.0713432,-15.805149)" /><g
     id="g30"
     transform="translate(2.0713432,-15.805149)" /><g
     id="g32"
     transform="translate(2.0713432,-15.805149)" /><g
     id="g34"
     transform="translate(2.0713432,-15.805149)" /><g
     id="g36"
     transform="translate(2.0713432,-15.805149)" /><g
     id="g38"
     transform="translate(2.0713432,-15.805149)" /><g
     id="g40"
     transform="translate(2.0713432,-15.805149)" /><g
     id="g42"
     transform="translate(2.0713432,-15.805149)" /></svg>