<?xml version="1.0" encoding="UTF-8" standalone="no"?>
<!-- Generator: Adobe Illustrator 19.0.0, SVG Export Plug-In . SVG Version: 6.00 Build 0)  -->

<svg
   xmlns:dc="http://purl.org/dc/elements/1.1/"
   xmlns:cc="http://creativecommons.org/ns#"
   xmlns:rdf="http://www.w3.org/1999/02/22-rdf-syntax-ns#"
   xmlns:svg="http://www.w3.org/2000/svg"
   xmlns="http://www.w3.org/2000/svg"
   xmlns:sodipodi="http://sodipodi.sourceforge.net/DTD/sodipodi-0.dtd"
   xmlns:inkscape="http://www.inkscape.org/namespaces/inkscape"
   version="1.1"
   id="Capa_1"
   x="0px"
   y="0px"
   viewBox="0 0 341.39999 352.49111"
   xml:space="preserve"
   sodipodi:docname="user-male.svg"
   inkscape:version="0.92.2 5c3e80d, 2017-08-06"
   width="341.39999"
   height="352.49112"><metadata
     id="metadata1629"><rdf:RDF><cc:Work
         rdf:about=""><dc:format>image/svg+xml</dc:format><dc:type
           rdf:resource="http://purl.org/dc/dcmitype/StillImage" /><dc:title></dc:title></cc:Work></rdf:RDF></metadata><defs
     id="defs1627" /><sodipodi:namedview
     pagecolor="#ffffff"
     bordercolor="#666666"
     borderopacity="1"
     objecttolerance="10"
     gridtolerance="10"
     guidetolerance="10"
     inkscape:pageopacity="0"
     inkscape:pageshadow="2"
     inkscape:window-width="1280"
     inkscape:window-height="755"
     id="namedview1625"
     showgrid="false"
     inkscape:zoom="1.0670482"
     inkscape:cx="190.45489"
     inkscape:cy="144.03726"
     inkscape:window-x="1490"
     inkscape:window-y="32"
     inkscape:window-maximized="0"
     inkscape:current-layer="g1590"
     fit-margin-top="0"
     fit-margin-left="0"
     fit-margin-right="0"
     fit-margin-bottom="0" /><g
     id="g1592"
     transform="translate(0,-68.354875)"><g
       id="g1590"><path
         d="m 341.2,372.746 c 0,-10.1 -4.4,-19.8 -12.2,-26.2 -43.5,-35.8 -90.5,-59.6 -100.1,-64.2 -1.1,-0.5 -1.7,-1.6 -1.7,-2.8 v -32.4 c 5.1,-8.8 8.4,-18.1 9.7,-26.6 3.7,-0.3 8.6,-5.5 13.9,-24.1 6.9,-24.6 0.1,-28.9 -6.2,-28.6 15.7,-72 -24.7,-72.2 -24.7,-72.2 -3.4,-15.1 -24.8,-30.8 -44.8,-26.6 -20,4.1 -61.2,-0.5 -61.2,-0.5 -0.6,8.7 6.9,14.8 6.9,14.8 -36.2,22.1 -27.9,70.7 -24.6,84.6 -6.2,0 -12.5,4.7 -5.8,28.7 5.3,18.6 10.2,23.8 13.9,24.1 1.3,8.4 4.6,17.7 9.7,26.6 v 32.2 c 0,1.2 -0.7,2.3 -1.7,2.8 -9.5,4.7 -56.5,28.4 -100.1,64.2 -7.8,6.4 -12.2,16.1 -12.2,26.2 v 48.1 h 341.4 v -48.1 z"
         id="path1588"
         inkscape:connector-curvature="0"
         style="fill:#dfdfdf;fill-opacity:1" /></g></g><g
     id="g1594"
     transform="translate(0,-68.354875)" /><g
     id="g1596"
     transform="translate(0,-68.354875)" /><g
     id="g1598"
     transform="translate(0,-68.354875)" /><g
     id="g1600"
     transform="translate(0,-68.354875)" /><g
     id="g1602"
     transform="translate(0,-68.354875)" /><g
     id="g1604"
     transform="translate(0,-68.354875)" /><g
     id="g1606"
     transform="translate(0,-68.354875)" /><g
     id="g1608"
     transform="translate(0,-68.354875)" /><g
     id="g1610"
     transform="translate(0,-68.354875)" /><g
     id="g1612"
     transform="translate(0,-68.354875)" /><g
     id="g1614"
     transform="translate(0,-68.354875)" /><g
     id="g1616"
     transform="translate(0,-68.354875)" /><g
     id="g1618"
     transform="translate(0,-68.354875)" /><g
     id="g1620"
     transform="translate(0,-68.354875)" /><g
     id="g1622"
     transform="translate(0,-68.354875)" /></svg>